<svg width="24" height="23" viewBox="0 0 24 23" fill="none" xmlns="http://www.w3.org/2000/svg">
<path d="M14.5859 11.5C14.5859 12.7157 13.6005 13.7012 12.3848 13.7012C11.1691 13.7012 10.1836 12.7157 10.1836 11.5C10.1836 10.2843 11.1691 9.29883 12.3848 9.29883C13.6005 9.29883 14.5859 10.2843 14.5859 11.5Z" fill="white"/>
<path d="M17.5325 7.60549C17.4267 7.31876 17.2579 7.05923 17.0385 6.84621C16.8255 6.62686 16.5662 6.45805 16.2793 6.35224C16.0466 6.26187 15.697 6.1543 15.0532 6.125C14.3567 6.09324 14.1479 6.0864 12.3847 6.0864C10.6214 6.0864 10.4126 6.09306 9.71627 6.12482C9.07245 6.1543 8.72272 6.26187 8.49022 6.35224C8.20332 6.45805 7.94379 6.62686 7.73093 6.84621C7.51159 7.05923 7.34278 7.31859 7.23679 7.60549C7.14642 7.83817 7.03886 8.1879 7.00955 8.83172C6.97779 9.52801 6.97095 9.73682 6.97095 11.5002C6.97095 13.2634 6.97779 13.4722 7.00955 14.1686C7.03886 14.8125 7.14642 15.162 7.23679 15.3947C7.34278 15.6816 7.51141 15.941 7.73076 16.154C7.94379 16.3733 8.20314 16.5421 8.49004 16.6479C8.72272 16.7385 9.07245 16.8461 9.71627 16.8754C10.4126 16.9071 10.6212 16.9138 12.3846 16.9138C14.1481 16.9138 14.3569 16.9071 15.053 16.8754C15.6968 16.8461 16.0466 16.7385 16.2793 16.6479C16.8552 16.4258 17.3103 15.9706 17.5325 15.3947C17.6229 15.162 17.7304 14.8125 17.7599 14.1686C17.7917 13.4722 17.7983 13.2634 17.7983 11.5002C17.7983 9.73682 17.7917 9.52801 17.7599 8.83172C17.7306 8.1879 17.623 7.83817 17.5325 7.60549ZM12.3847 14.8909C10.5119 14.8909 8.99366 13.3729 8.99366 11.5C8.99366 9.62715 10.5119 8.10911 12.3847 8.10911C14.2574 8.10911 15.7756 9.62715 15.7756 11.5C15.7756 13.3729 14.2574 14.8909 12.3847 14.8909ZM15.9097 8.76749C15.4721 8.76749 15.1172 8.41268 15.1172 7.97504C15.1172 7.53741 15.4721 7.18259 15.9097 7.18259C16.3473 7.18259 16.7021 7.53741 16.7021 7.97504C16.702 8.41268 16.3473 8.76749 15.9097 8.76749Z" fill="white"/>
<path d="M12.3848 0C6.03446 0 0.884766 5.1497 0.884766 11.5C0.884766 17.8503 6.03446 23 12.3848 23C18.7351 23 23.8848 17.8503 23.8848 11.5C23.8848 5.1497 18.7351 0 12.3848 0ZM18.9484 14.2225C18.9165 14.9255 18.8047 15.4054 18.6415 15.8255C18.2985 16.7125 17.5973 17.4137 16.7103 17.7568C16.2903 17.92 15.8102 18.0316 15.1075 18.0637C14.4033 18.0958 14.1783 18.1035 12.3849 18.1035C10.5914 18.1035 10.3666 18.0958 9.66225 18.0637C8.95947 18.0316 8.47937 17.92 8.05946 17.7568C7.61866 17.591 7.21963 17.3311 6.88973 16.995C6.55387 16.6653 6.29399 16.2661 6.12817 15.8255C5.96497 15.4056 5.8532 14.9255 5.82126 14.2227C5.7888 13.5183 5.78125 13.2934 5.78125 11.5C5.78125 9.70663 5.7888 9.48167 5.82108 8.77749C5.85302 8.07453 5.96462 7.5946 6.12782 7.17451C6.29364 6.73389 6.5537 6.33469 6.88973 6.00497C7.21945 5.66893 7.61866 5.40905 8.05928 5.24323C8.47937 5.08003 8.9593 4.96843 9.66225 4.93632C10.3664 4.90421 10.5914 4.89648 12.3848 4.89648C14.1781 4.89648 14.4031 4.90421 15.1073 4.93649C15.8102 4.96843 16.2902 5.08003 16.7103 5.24305C17.1509 5.40887 17.5501 5.66893 17.88 6.00497C18.2158 6.33486 18.4759 6.73389 18.6415 7.17451C18.8049 7.5946 18.9165 8.07453 18.9486 8.77749C18.9807 9.48167 18.9883 9.70663 18.9883 11.5C18.9883 13.2934 18.9807 13.5183 18.9484 14.2225Z" fill="white"/>
</svg>
