<svg width="24" height="23" viewBox="0 0 24 23" fill="none" xmlns="http://www.w3.org/2000/svg">
<path d="M12.2695 0C5.91923 0 0.769531 5.1497 0.769531 11.5C0.769531 17.8503 5.91923 23 12.2695 23C18.6198 23 23.7695 17.8503 23.7695 11.5C23.7695 5.1497 18.6198 0 12.2695 0ZM17.5203 8.96648C17.5254 9.07966 17.5278 9.19337 17.5278 9.3076C17.5278 12.7955 14.8729 16.8176 10.0176 16.8178H10.0178H10.0176C8.52698 16.8178 7.13984 16.3809 5.97169 15.6321C6.17823 15.6565 6.38845 15.6686 6.6013 15.6686C7.83806 15.6686 8.9762 15.2468 9.87972 14.5387C8.72421 14.5173 7.74997 13.7542 7.41376 12.7053C7.57467 12.7362 7.74014 12.7531 7.90983 12.7531C8.15076 12.7531 8.38414 12.7206 8.60594 12.6601C7.39814 12.4183 6.4883 11.3508 6.4883 10.0727C6.4883 10.0607 6.4883 10.05 6.48865 10.039C6.84434 10.2367 7.25109 10.3557 7.68417 10.3691C6.97542 9.89615 6.50953 9.08773 6.50953 8.17192C6.50953 7.68831 6.64026 7.23523 6.86697 6.84515C8.16866 8.44233 10.114 9.49273 12.3078 9.6031C12.2625 9.40973 12.2392 9.20828 12.2392 9.00122C12.2392 7.54407 13.4214 6.36189 14.879 6.36189C15.6383 6.36189 16.3241 6.68283 16.8058 7.19592C17.4071 7.0773 17.9718 6.8576 18.4819 6.55526C18.2845 7.17136 17.8662 7.68831 17.3211 8.01522C17.8551 7.95135 18.364 7.80974 18.8369 7.59952C18.4837 8.12893 18.0357 8.59394 17.5203 8.96648Z" fill="white"/>
</svg>
